<?xml version="1.0" encoding="UTF-8" standalone="no"?>
<!-- Created with Inkscape (http://www.inkscape.org/) -->

<svg
   version="1.1"
   id="svg1"
   width="918.76855"
   height="319.55704"
   viewBox="0 0 918.76855 319.55704"
   sodipodi:docname="iLoopLogo.svg"
   inkscape:version="1.4 (86a8ad7, 2024-10-11)"
   inkscape:export-filename="iLoopLogo.png"
   inkscape:export-xdpi="96"
   inkscape:export-ydpi="96"
   xml:space="preserve"
   xmlns:inkscape="http://www.inkscape.org/namespaces/inkscape"
   xmlns:sodipodi="http://sodipodi.sourceforge.net/DTD/sodipodi-0.dtd"
   xmlns:xlink="http://www.w3.org/1999/xlink"
   xmlns="http://www.w3.org/2000/svg"
   xmlns:svg="http://www.w3.org/2000/svg"><defs
     id="defs1"><linearGradient
       id="linearGradient14"
       inkscape:collect="always"><stop
         style="stop-color:#2690ff;stop-opacity:1;"
         offset="0"
         id="stop15" /><stop
         style="stop-color:#0057d1;stop-opacity:1;"
         offset="1"
         id="stop16" /></linearGradient><clipPath
       clipPathUnits="userSpaceOnUse"
       id="clipPath3"><rect
         style="fill:#ffffff;fill-rule:evenodd;stroke-width:2.45484;stroke-linecap:round;stroke-linejoin:round;stroke-miterlimit:3.5"
         id="rect4"
         width="453.51974"
         height="286.11313"
         x="283.03195"
         y="52.796497" /></clipPath><radialGradient
       inkscape:collect="always"
       xlink:href="#linearGradient14"
       id="radialGradient16"
       cx="509.79181"
       cy="199.4203"
       fx="509.79181"
       fy="199.4203"
       r="226.75987"
       gradientTransform="matrix(0.4430101,0.91444599,-1.8447672,0.89371114,651.83295,-444.98092)"
       gradientUnits="userSpaceOnUse" /></defs><sodipodi:namedview
     id="namedview1"
     pagecolor="#ffffff"
     bordercolor="#000000"
     borderopacity="0.25"
     inkscape:showpageshadow="2"
     inkscape:pageopacity="0.0"
     inkscape:pagecheckerboard="0"
     inkscape:deskcolor="#d1d1d1"
     inkscape:zoom="0.65708274"
     inkscape:cx="460.3682"
     inkscape:cy="157.51441"
     inkscape:window-width="1920"
     inkscape:window-height="1051"
     inkscape:window-x="-9"
     inkscape:window-y="-9"
     inkscape:window-maximized="1"
     inkscape:current-layer="g1" /><g
     inkscape:groupmode="layer"
     inkscape:label="Image"
     id="g1"
     transform="translate(-10.615709,-40.621472)"><path
       id="path1-8"
       style="display:inline;fill:#000000;stroke-width:0.966663"
       d="M 60.660631 48.230847 C 54.759803 48.230847 53.01963 48.541564 49.393053 50.242566 C 43.684143 52.920264 39.719298 56.522535 37.217272 61.307019 C 35.388326 64.804405 35.158125 66.105874 35.156725 72.976941 C 35.15541 79.492509 35.427591 81.223995 36.883287 83.974988 C 40.453727 90.722469 45.000908 94.4402 52.908678 97.07655 C 54.858232 97.726457 58.246348 97.991532 62.07274 97.791394 C 76.570541 97.033066 86.623836 87.025155 86.725084 73.252331 C 86.800542 62.989485 82.056365 55.330671 72.799303 50.771863 C 68.120181 48.467543 66.986838 48.230847 60.660631 48.230847 z M 120.57469 63.310925 L 120.57469 175.31483 C 120.57469 236.91703 120.8085 287.55255 121.09422 287.83827 C 121.37995 288.12399 154.17916 288.26903 193.98094 288.16053 L 266.34813 287.96327 L 266.55516 270.27382 C 266.70102 257.87522 266.50008 252.26544 265.88133 251.51991 C 265.14888 250.63736 256.52009 250.45741 215.21337 250.45741 L 165.42821 250.45741 L 165.42821 156.88319 L 165.42821 63.310925 L 143.00047 63.310925 L 120.57469 63.310925 z M 851.55907 115.28749 C 845.55382 115.45291 839.8903 116.06111 836.70751 117.05507 C 825.13596 120.66874 815.65285 127.03448 809.4868 135.32655 C 806.58356 139.23081 805.06368 140.65305 803.97313 140.48671 C 802.5653 140.27199 802.47536 139.62737 802.59618 130.55702 C 802.66724 125.22171 802.49769 120.26316 802.21922 119.53749 C 801.75904 118.33826 799.784 118.21718 780.52977 118.21718 L 759.34618 118.21718 L 759.34618 237.24647 C 759.34618 331.7456 759.54551 356.35477 760.31297 356.66444 C 762.26386 357.45165 799.65073 357.18177 801.16844 356.36952 C 802.63668 355.58369 802.67614 354.43108 802.63524 312.86952 C 802.59855 275.61738 802.73946 270.1462 803.74657 269.93397 C 804.38137 269.8002 807.61438 272.43444 810.93016 275.78944 C 815.42795 280.34043 818.43115 282.61313 822.75829 284.73475 C 834.55056 290.51656 851.09345 292.77911 863.88329 290.36171 C 880.78325 287.16746 890.93023 282.03651 900.96532 271.6078 C 915.99991 255.98347 923.28455 233.5571 923.29735 202.85585 C 923.3028 189.69102 922.55116 182.32079 920.07079 171.18983 C 913.05798 139.719 895.30201 120.79634 868.45555 116.18202 C 863.91106 115.40092 857.56432 115.12207 851.55907 115.28749 z M 39.762193 118.60389 L 39.562975 202.51014 C 39.453431 248.65862 39.531602 286.85823 39.736803 287.39686 C 40.02776 288.16019 44.66737 288.32899 60.814928 288.16835 L 81.521959 287.96327 L 81.521959 203.28358 L 81.521959 118.60389 L 60.6411 118.60389 L 39.762193 118.60389 z M 838.95555 151.6078 C 841.54729 151.50732 844.25003 151.62745 847.05516 151.97499 C 862.04423 153.83204 872.29319 163.47465 876.52196 179.69764 C 879.35394 190.56211 879.66976 210.71153 877.20555 223.21522 C 873.74809 240.75874 864.26438 250.97695 848.66649 253.96132 C 841.59464 255.31438 838.68805 255.29696 832.12743 253.86171 C 825.41615 252.39349 820.95636 250.0484 815.77001 245.26405 C 810.88022 240.75324 806.53992 233.02463 804.57274 225.32264 C 801.66583 213.94129 801.352 195.78156 803.85594 183.9496 C 808.11347 163.83144 820.81336 152.31113 838.95555 151.6078 z " /><path
       style="display:inline;fill:url(#radialGradient16);fill-opacity:1"
       d="m 762.77897,379.00113 c -0.79392,-0.32035 -1,-25.77871 -1,-123.53683 V 132.33097 h 21.91441 c 19.91825,0 21.96212,0.12432 22.43817,1.36491 0.28807,0.7507 0.46362,5.8807 0.3901,11.4 -0.12498,9.38316 -0.0325,10.05052 1.4239,10.27265 1.12816,0.17207 2.70069,-1.29972 5.70405,-5.33863 6.3787,-8.57804 16.18791,-15.16215 28.15853,-18.90045 6.58511,-2.05647 23.44074,-2.52077 32.84317,-0.9047 27.77231,4.77346 46.14132,24.35005 53.39598,56.90621 2.56591,11.51483 3.34262,19.13964 3.33698,32.75848 -0.0132,31.76005 -7.54848,54.95875 -23.10156,71.12191 -10.38117,10.78837 -20.87772,16.09722 -38.36051,19.40163 -13.23092,2.50077 -30.34427,0.15856 -42.54322,-5.82265 -4.47637,-2.19479 -7.58371,-4.54428 -12.23661,-9.25221 -3.43014,-3.47071 -6.77391,-6.19715 -7.4306,-6.05877 -1.04184,0.21955 -1.18845,5.87971 -1.15049,44.41656 0.0423,42.99489 0.002,44.18707 -1.51681,45 -1.57005,0.84027 -40.24731,1.11958 -42.26549,0.30522 z m 91.40026,-106.24514 c 16.13581,-3.08729 25.94816,-13.65792 29.52485,-31.80646 2.5492,-12.9349 2.22114,-33.77942 -0.70851,-45.01857 -4.3746,-16.78248 -14.97661,-26.75681 -30.48261,-28.67791 -23.21496,-2.87619 -39.65557,9.2928 -44.68912,33.07791 -2.5903,12.24001 -2.26418,31.02615 0.74299,42.8 2.03502,7.96761 6.52383,15.96252 11.58226,20.62889 5.36521,4.94935 9.97923,7.37416 16.92196,8.89301 6.78687,1.48475 9.79244,1.50286 17.10818,0.10313 z M 17.352852,307.34407 c -0.212278,-0.55721 -0.293243,-40.07311 -0.179921,-87.81311 l 0.20604,-86.79999 h 21.6 21.600004 v 87.59999 87.6 l -21.420083,0.21311 c -16.704438,0.16618 -21.505049,-0.01 -21.80604,-0.8 z m 84.163528,0.45764 c -0.29557,-0.29558 -0.53741,-52.67741 -0.53741,-116.40408 V 75.530975 h 23.2 23.2 v 96.799985 96.8 h 51.50204 c 42.73126,0 51.65757,0.1874 52.41528,1.10038 0.64008,0.77125 0.84884,6.57381 0.69795,19.4 l -0.21527,18.29962 -74.86259,0.20408 c -41.17442,0.11224 -75.10442,-0.0378 -75.4,-0.33333 z m 289.46259,-7.19999 c -9.87685,-1.19142 -19.64323,-3.24 -26.73873,-5.60869 -33.92491,-11.32514 -61.38534,-37.8132 -73.67074,-71.06207 -5.25228,-14.21463 -6.79842,-23.65467 -6.74798,-41.2 0.0355,-12.33277 0.34781,-16.20031 1.87368,-23.19999 4.96675,-22.78415 15.42602,-41.86139 32.03335,-58.42741 17.6243,-17.580465 38.01102,-28.498787 62.17361,-33.297748 10.66643,-2.118471 32.58098,-1.918551 42.43096,0.387084 29.50546,6.906489 51.43879,23.184049 72.4098,53.738074 7.39328,10.77174 13.69752,22.00034 26.50022,47.19999 20.86175,41.06237 29.56306,55.1952 41.88925,68.03733 13.69344,14.26661 24.67473,19.21029 42.70789,19.2267 13.5019,0.0123 22.47225,-2.0977 34.38739,-8.08852 35.11483,-17.65539 49.73177,-61.67299 32.24333,-97.09791 -7.40396,-14.99762 -19.01825,-26.41711 -34.29203,-33.71688 -8.27248,-3.95366 -13.75531,-5.4985 -24.2618,-6.83599 -11.87327,-1.51149 -25.07777,1.03589 -35.4419,6.83737 -8.89021,4.97643 -19.21811,15.48739 -28.11257,28.61086 -2.30105,3.39513 -4.36373,6.17389 -4.58373,6.17504 -0.22,10e-4 -3.28,-5.44849 -6.8,-12.1103 -3.52,-6.66181 -8.85609,-16.21167 -11.85798,-21.22189 l -5.45798,-9.10951 3.03824,-3.75315 c 9.37859,-11.585398 23.29105,-22.980775 35.80129,-29.324005 15.34037,-7.778234 26.12006,-10.239202 45.27643,-10.336467 15.7298,-0.07987 21.3993,0.702542 35.17691,4.854515 18.58934,5.602022 33.77142,14.821822 48.49009,29.447127 17.03861,16.93054 27.29503,35.51721 32.44992,58.80569 1.57235,7.10351 1.86116,10.68428 1.87121,23.19999 0.0121,15.0866 -0.64772,20.68744 -3.72269,31.6 -7.20175,25.55783 -22.17975,47.36551 -43.39933,63.18861 -30.87889,23.02588 -71.40995,29.61367 -105.26611,17.1096 -6.20254,-2.29078 -16.15858,-7.41043 -21.91036,-11.26687 -22.60833,-15.15837 -39.64367,-38.06742 -62.74365,-84.37737 -21.06701,-42.23436 -31.59186,-58.97699 -45.45287,-72.30518 -10.48436,-10.08133 -19.01615,-14.22945 -32.93958,-16.01505 -16.30089,-2.09051 -35.97595,3.09471 -50.08254,13.19889 -5.55193,3.97671 -14.20264,12.75014 -17.81464,18.06738 -9.05457,13.32927 -13.89604,30.99434 -12.68698,46.29106 2.02704,25.64571 15.97359,47.45356 38.13928,59.63734 10.68433,5.87285 21.61476,8.52751 35.06878,8.51712 22.79526,-0.0176 39.16032,-10.29512 56.3115,-35.36452 3.15391,-4.60998 4.51232,-6.02388 5.07948,-5.28696 0.42581,0.55328 3.22342,5.68595 6.2169,11.40595 2.99349,5.72 8.11161,14.83953 11.3736,20.26562 l 5.93089,9.86561 -2.21909,2.93439 c -2.81792,3.72624 -13.95663,14.8732 -18.67072,18.68454 -10.52198,8.50702 -27.07909,16.60943 -39.6,19.3787 -11.06925,2.44821 -25.41975,3.42517 -34.4,2.3419 z M 30.978971,110.46141 C 22.798486,107.73414 18.09502,103.8889 14.401447,96.908722 12.895548,94.062855 12.614354,92.271235 12.615714,85.530965 c 0.0014,-7.10803 0.239038,-8.45401 2.131058,-12.07201 2.588313,-4.949486 6.689901,-8.677051 12.595694,-11.447094 3.751646,-1.759665 5.550843,-2.08089 11.655172,-2.08089 6.544379,0 7.717397,0.245609 12.557887,2.629398 9.57631,4.716028 14.48436,12.638976 14.4063,23.255756 -0.10474,14.247805 -10.504425,24.599125 -25.502211,25.383605 -3.958352,0.20704 -7.463855,-0.066 -9.480643,-0.73832 z"
       id="path1-8-1"
       clip-path="url(#clipPath3)"
       transform="matrix(1.0339412,0,0,1.0339412,-12.096288,-5.6001101)" /></g></svg>
